<svg width="27" height="27" viewBox="0 0 27 27" fill="none" xmlns="http://www.w3.org/2000/svg">
<path d="M24.6147 2.41875L23.2647 2.86875C20.9511 3.67261 18.4804 3.91929 16.0535 3.58875C13.5033 3.19298 10.893 3.54467 8.53847 4.60125C7.29026 5.13275 6.19482 5.96803 5.35188 7.03103C4.50894 8.09404 3.94528 9.35101 3.71222 10.6875C3.47515 11.9728 3.4994 13.2926 3.78353 14.5683C4.06766 15.844 4.60584 17.0493 5.36597 18.1125C5.29847 18.3487 5.23097 18.585 5.17472 18.8212C4.71779 20.7642 4.49123 22.7541 4.49972 24.75H6.74972C6.85663 23.1164 7.07843 21.4924 7.41347 19.89C8.97433 20.7328 10.7247 21.1627 12.4985 21.1387C14.1528 21.1376 15.79 20.8048 17.3135 20.16C25.8747 16.5037 24.7497 4.3425 24.7497 3.83625L24.6147 2.41875ZM16.436 18.09C13.4997 19.3387 9.98972 19.125 8.02097 17.5837C8.3538 16.4712 8.81041 15.3995 9.38222 14.3887C9.82705 13.6615 10.3515 12.9861 10.946 12.375C11.5536 11.7576 12.2379 11.2207 12.9822 10.7775C14.5202 9.85787 16.2258 9.25362 17.9997 9V7.875C15.9586 7.80304 13.9298 8.21959 12.0822 9.09C10.1933 10.0129 8.59112 11.4324 7.44722 13.1962C7.02306 13.8701 6.64712 14.5731 6.32222 15.3C5.80081 13.9661 5.65301 12.5153 5.89472 11.1037C6.05309 10.1155 6.46048 9.18379 7.0785 8.39651C7.69652 7.60922 8.50482 6.99226 9.42722 6.60375C10.7719 5.97398 12.2399 5.65119 13.7247 5.65875C14.4222 5.65875 15.1085 5.72625 15.8285 5.7825C18.0833 6.07342 20.3727 5.93988 22.5785 5.38875C22.4997 8.49375 21.9372 15.75 16.436 18.09Z" fill="black"/>
</svg>
