<svg width="27" height="27" viewBox="0 0 27 27" fill="none" xmlns="http://www.w3.org/2000/svg">
<path d="M24.7497 3.83625L24.6147 2.41875L23.2647 2.86875C20.951 3.67261 18.4803 3.91929 16.0534 3.58875C13.5032 3.19298 10.893 3.54467 8.53842 4.60125C7.29021 5.13275 6.19477 5.96803 5.35183 7.03103C4.50889 8.09404 3.94523 9.35101 3.71217 10.6875C3.40997 12.414 3.56115 14.1894 4.15092 15.84C4.53067 14.9828 4.97442 14.1555 5.47842 13.365C6.62165 11.6829 8.20573 10.3479 10.0572 9.50625C11.8408 8.69189 13.7904 8.3066 15.7497 8.38125C13.8846 8.66707 12.0993 9.33751 10.5072 10.35C9.73947 10.8327 9.03632 11.411 8.41467 12.0712C7.82042 12.7314 7.29636 13.4515 6.85092 14.22C6.01467 15.8266 5.41953 17.5475 5.08467 19.3275C4.72377 21.1132 4.52795 22.9284 4.49967 24.75H6.74967C6.85658 23.1164 7.07838 21.4924 7.41342 19.89C8.97428 20.7328 10.7247 21.1627 12.4984 21.1387C14.1527 21.1376 15.79 20.8048 17.3134 20.16C25.8747 16.5037 24.7497 4.3425 24.7497 3.83625Z" fill="black"/>
</svg>
