<svg width="27" height="27" viewBox="0 0 27 27" fill="none" xmlns="http://www.w3.org/2000/svg">
<path d="M22.2413 8.13375L22.2525 8.1225L18.0675 3.9375L16.875 5.13L19.2488 7.50375C18.1913 7.90875 17.4375 8.92125 17.4375 10.125C17.4375 10.4943 17.5102 10.8601 17.6516 11.2013C17.7929 11.5425 18.0001 11.8526 18.2613 12.1137C18.7887 12.6412 19.5041 12.9375 20.25 12.9375C20.655 12.9375 21.0263 12.8475 21.375 12.7013V20.8125C21.375 21.4312 20.8687 21.9375 20.25 21.9375C19.6313 21.9375 19.125 21.4312 19.125 20.8125V15.75C19.125 14.5125 18.1125 13.5 16.875 13.5H15.75V5.625C15.75 4.3875 14.7375 3.375 13.5 3.375H6.75C5.5125 3.375 4.5 4.3875 4.5 5.625V23.625H15.75V15.1875H17.4375V20.8125C17.4375 21.5584 17.7338 22.2738 18.2613 22.8012C18.7887 23.3287 19.5041 23.625 20.25 23.625C20.9959 23.625 21.7113 23.3287 22.2387 22.8012C22.7662 22.2738 23.0625 21.5584 23.0625 20.8125V10.125C23.0625 9.34875 22.7475 8.64 22.2413 8.13375ZM13.5 12.375V21.375H6.75V5.625H13.5V12.375ZM20.25 11.25C19.6313 11.25 19.125 10.7438 19.125 10.125C19.125 9.50625 19.6313 9 20.25 9C20.8687 9 21.375 9.50625 21.375 10.125C21.375 10.7438 20.8687 11.25 20.25 11.25ZM11.25 6.75L6.75 15.1875H9V20.25L13.5 12.375H11.25V6.75Z" fill="black"/>
</svg>
