<svg width="27" height="27" viewBox="0 0 27 27" fill="none" xmlns="http://www.w3.org/2000/svg">
<path d="M13.4992 14.4C14.4988 14.4 15.4574 14.0029 16.1641 13.2962C16.8709 12.5894 17.268 11.6308 17.268 10.6313C17.268 9.63172 16.8709 8.67312 16.1641 7.96634C15.4574 7.25957 14.4988 6.8625 13.4992 6.8625C12.4997 6.8625 11.5411 7.25957 10.8343 7.96634C10.1275 8.67312 9.73047 9.63172 9.73047 10.6313C9.73047 11.6308 10.1275 12.5894 10.8343 13.2962C11.5411 14.0029 12.4997 14.4 13.4992 14.4Z" stroke="black" stroke-width="1.5" stroke-miterlimit="10" stroke-linecap="round"/>
<path d="M13.4992 3.09375C5.96166 3.09375 4.70504 9.37462 5.96166 14.1356C7.06754 18.3071 10.3829 21.1579 12.5699 23.4956C12.6877 23.625 12.8312 23.7283 12.9912 23.7991C13.1512 23.8698 13.3242 23.9063 13.4992 23.9063C13.6741 23.9063 13.8471 23.8698 14.0071 23.7991C14.1672 23.7283 14.3106 23.625 14.4284 23.4956C16.6143 21.1579 19.9308 18.3071 21.0367 14.1356C22.2933 9.37462 21.0367 3.09375 13.4992 3.09375Z" stroke="black" stroke-width="1.5" stroke-miterlimit="10" stroke-linecap="round"/>
</svg>
