<svg width="27" height="27" viewBox="0 0 27 27" fill="none" xmlns="http://www.w3.org/2000/svg">
<path d="M20.5834 5.21663C19.6689 4.26348 18.5712 3.50506 17.3561 2.98697C16.141 2.46888 14.8337 2.20181 13.5128 2.20181C12.1919 2.20181 10.8846 2.46888 9.66955 2.98697C8.45448 3.50506 7.3567 4.26348 6.44219 5.21663C4.72094 7.46663 4.1922 10.8416 5.1597 14.3066C6.1497 18.0529 8.79345 20.7641 10.9197 22.9354L11.9547 24.0604C12.1557 24.2737 12.3965 24.4457 12.6634 24.5666C12.9309 24.6854 13.2202 24.7468 13.5128 24.7468C13.8054 24.7468 14.0948 24.6854 14.3622 24.5666C14.6242 24.4477 14.861 24.2797 15.0597 24.0716L16.1059 22.9466C18.2322 20.7754 20.8759 18.0641 21.8659 14.3179C22.7772 10.8416 22.3047 7.46663 20.5834 5.21663ZM13.5072 14.4979C12.6673 14.4981 11.8497 14.2282 11.175 13.7281C10.5003 13.228 10.0043 12.5241 9.76021 11.7205C9.51616 10.9169 9.537 10.0561 9.81967 9.26524C10.1023 8.47439 10.6318 7.79539 11.33 7.32852C12.0281 6.86165 12.8578 6.63166 13.6967 6.67251C14.5356 6.71337 15.3391 7.02289 15.9885 7.55539C16.638 8.08789 17.099 8.81512 17.3035 9.6297C17.5079 10.4443 17.445 11.303 17.1241 12.0791C16.8276 12.7936 16.3255 13.4039 15.6815 13.8326C15.0376 14.2612 14.2808 14.4889 13.5072 14.4866V14.4979Z" fill="black"/>
</svg>
