<svg width="27" height="27" viewBox="0 0 27 27" fill="none" xmlns="http://www.w3.org/2000/svg">
<path d="M15.75 10.125C15.4312 10.125 15.1643 10.017 14.949 9.801C14.7338 9.585 14.6257 9.318 14.625 9V4.5C14.625 4.18125 14.733 3.91425 14.949 3.699C15.165 3.48375 15.432 3.37575 15.75 3.375H22.5C22.8188 3.375 23.0861 3.483 23.3021 3.699C23.5181 3.915 23.6257 4.182 23.625 4.5V9C23.625 9.31875 23.517 9.58613 23.301 9.80213C23.085 10.0181 22.818 10.1258 22.5 10.125H15.75ZM4.5 14.625C4.18125 14.625 3.91425 14.517 3.699 14.301C3.48375 14.085 3.37575 13.818 3.375 13.5V4.5C3.375 4.18125 3.483 3.91425 3.699 3.699C3.915 3.48375 4.182 3.37575 4.5 3.375H11.25C11.5688 3.375 11.8361 3.483 12.0521 3.699C12.2681 3.915 12.3757 4.182 12.375 4.5V13.5C12.375 13.8188 12.267 14.0861 12.051 14.3021C11.835 14.5181 11.568 14.6257 11.25 14.625H4.5ZM15.75 23.625C15.4312 23.625 15.1643 23.517 14.949 23.301C14.7338 23.085 14.6257 22.818 14.625 22.5V13.5C14.625 13.1812 14.733 12.9143 14.949 12.699C15.165 12.4838 15.432 12.3757 15.75 12.375H22.5C22.8188 12.375 23.0861 12.483 23.3021 12.699C23.5181 12.915 23.6257 13.182 23.625 13.5V22.5C23.625 22.8188 23.517 23.0861 23.301 23.3021C23.085 23.5181 22.818 23.6257 22.5 23.625H15.75ZM4.5 23.625C4.18125 23.625 3.91425 23.517 3.699 23.301C3.48375 23.085 3.37575 22.818 3.375 22.5V18C3.375 17.6812 3.483 17.4143 3.699 17.199C3.915 16.9838 4.182 16.8757 4.5 16.875H11.25C11.5688 16.875 11.8361 16.983 12.0521 17.199C12.2681 17.415 12.3757 17.682 12.375 18V22.5C12.375 22.8188 12.267 23.0861 12.051 23.3021C11.835 23.5181 11.568 23.6257 11.25 23.625H4.5Z" fill="black"/>
</svg>
