<svg width="27" height="27" viewBox="0 0 27 27" fill="none" xmlns="http://www.w3.org/2000/svg">
<path d="M6.75 23.625V21.375L7.875 20.25H4.5C3.88125 20.25 3.35175 20.0299 2.9115 19.5896C2.47125 19.1494 2.25075 18.6195 2.25 18V5.625C2.25 5.00625 2.4705 4.47675 2.9115 4.0365C3.3525 3.59625 3.882 3.37575 4.5 3.375H22.5C23.1187 3.375 23.6486 3.5955 24.0896 4.0365C24.5306 4.4775 24.7507 5.007 24.75 5.625V18C24.75 18.6187 24.5299 19.1486 24.0896 19.5896C23.6494 20.0306 23.1195 20.2507 22.5 20.25H19.125L20.25 21.375V23.625H6.75Z" fill="black"/>
</svg>
